# xmcd CD database file generated by OrangeCD 5.1
#
# Track frame offsets:
#	150
#	18227
#	33888
#	51736
#	65991
#	88942
#	111088
#	129237
#	147334
#	167645
#	187290
#	207683
#
# Disc length: 2997 seconds
#
# Revision: 0
# Processed by: cddbd v1.5PL3 Copyright (c) Steve Scherf et al.
# Submitted via: OrangeCD 5.1
#
DISCID=bc0bb30c
DTITLE=Tommy Castro - The Essential Tommy Castro
DYEAR=2001
DGENRE=Blues
TTITLE0=Can't Keep a Good Man Down
TTITLE1=Exception to the Rule
TTITLE2=Lucky in Love
TTITLE3=The Girl Can't Help It
TTITLE4=Just a Man
TTITLE5=Had Enough
TTITLE6=Nasty Habits
TTITLE7=Sho' Enough
TTITLE8=Take The Highway Down
TTITLE9=Right as Rain
TTITLE10=Hydcodan
TTITLE11=Nobody Loves Me Like My Baby
EXTD=
EXTT0=
EXTT1=
EXTT2=
EXTT3=
EXTT4=
EXTT5=
EXTT6=
EXTT7=
EXTT8=
EXTT9=
EXTT10=
EXTT11=
PLAYORDER=
